<svg width="23" height="23" viewBox="0 0 23 23" fill="none" xmlns="http://www.w3.org/2000/svg">
<path d="M16.6084 13.5051C16.3159 13.4076 15.0484 12.7251 14.7559 12.6276C14.4634 12.5301 14.3659 12.5301 14.1709 12.7251C13.9026 13.1017 13.6094 13.46 13.2934 13.7976C13.0984 13.9926 13.0009 13.9926 12.7084 13.8951C11.8933 13.6207 11.1571 13.1522 10.5634 12.5301C9.95887 12.0147 9.4619 11.3852 9.10086 10.6776C8.90586 10.3851 9.10086 10.2876 9.19836 10.0926C9.35154 9.95005 9.48294 9.7858 9.58836 9.60507C9.68586 9.41007 9.78336 9.31257 9.88086 9.11757C9.97836 8.92257 9.88086 8.82507 9.88086 8.63007C9.88086 8.43507 9.29586 7.16757 9.00336 6.68007C8.71086 6.19257 8.61336 6.19257 8.41836 6.19257H7.93086C7.67539 6.20396 7.43279 6.30793 7.24836 6.48507C6.92782 6.7616 6.67372 7.10681 6.50492 7.49504C6.33613 7.88327 6.25698 8.30455 6.27336 8.72757C6.36271 9.7243 6.73479 10.6748 7.34586 11.4673C8.45341 13.222 10.0496 14.6149 11.9381 15.4746C12.6206 15.7671 13.1081 15.8646 13.4981 16.0596C14.0335 16.2313 14.6037 16.2648 15.1556 16.1571C15.8997 15.9584 16.5534 15.5111 17.0081 14.8896C17.1313 14.4781 17.1969 14.0515 17.2031 13.6221C17.0039 13.6238 16.806 13.5908 16.6181 13.5246L16.6084 13.5051ZM11.7334 20.1351C10.1136 20.1545 8.52152 19.7151 7.14111 18.8676L6.84861 18.6726L3.42636 19.5501L4.31361 16.2351L4.11861 15.9426C3.22734 14.5048 2.75464 12.8469 2.75361 11.1553C2.75168 9.37653 3.27751 7.63716 4.26455 6.15735C5.25158 4.67754 6.65545 3.52382 8.29847 2.84222C9.94148 2.16062 11.7498 1.98178 13.4945 2.32833C15.2392 2.67488 16.8418 3.53124 18.0996 4.78904C19.3574 6.04683 20.2138 7.6495 20.5603 9.3942C20.9069 11.1389 20.7281 12.9472 20.0465 14.5902C19.3648 16.2332 18.2111 17.6371 16.7313 18.6241C15.2515 19.6112 13.5121 20.137 11.7334 20.1351ZM19.3481 3.63807C17.3008 1.66468 14.5767 0.548514 11.7334 0.518066C8.88891 0.518066 6.16096 1.64802 4.14964 3.65935C2.13831 5.67067 1.00836 8.39862 1.00836 11.2431C1.00788 13.1322 1.51284 14.9871 2.47086 16.6153L0.891357 22.2021L6.65361 20.7396C8.24033 21.6037 10.0244 22.0404 11.8309 22.0071C13.2393 22.0071 14.6339 21.7297 15.9351 21.1907C17.2364 20.6517 18.4187 19.8617 19.4146 18.8658C20.4105 17.8699 21.2005 16.6876 21.7395 15.3863C22.2784 14.0851 22.5559 12.6905 22.5559 11.2821C22.4868 8.42595 21.3329 5.70327 19.3286 3.66732" fill="#FAFBFC"/>
</svg>
