<svg width="20" height="16" viewBox="0 0 20 16" fill="none" xmlns="http://www.w3.org/2000/svg">
<path d="M17.6455 3.98857C17.6455 4.1592 17.6455 4.32982 17.6455 4.47607C17.6455 9.5217 13.7943 15.3473 6.77428 15.3473C4.6049 15.3473 2.60615 14.7136 0.899902 13.6411C1.1924 13.6654 1.50928 13.6898 1.80178 13.6898C3.58115 13.6898 5.23865 13.0804 6.5549 12.0567C4.87303 12.0323 3.45928 10.9111 2.99615 9.39982C3.2399 9.44857 3.45928 9.47295 3.7274 9.47295C4.06865 9.47295 4.4099 9.4242 4.72678 9.3267C2.97178 8.98545 1.65553 7.44982 1.65553 5.59732C1.65553 5.57295 1.65553 5.57295 1.65553 5.54857C2.1674 5.84107 2.7524 6.0117 3.38615 6.03607C2.3624 5.35357 1.6799 4.18357 1.6799 2.84295C1.6799 2.13607 1.8749 1.47795 2.19178 0.917324C4.06865 3.23295 6.89615 4.7442 10.0649 4.91482C9.99178 4.6467 9.9674 4.32982 9.9674 4.03732C9.9674 1.9167 11.6736 0.210449 13.7943 0.210449C14.8911 0.210449 15.8905 0.673574 16.573 1.40482C17.4505 1.2342 18.2549 0.917324 19.0105 0.478574C18.718 1.38045 18.1086 2.1117 17.3286 2.5992C18.1086 2.5017 18.8399 2.3067 19.5224 1.98982C19.0349 2.76982 18.4011 3.45232 17.6455 3.98857Z" fill="#FAFBFC"/>
</svg>
