<svg width="24" height="25" viewBox="0 0 24 25" fill="none" xmlns="http://www.w3.org/2000/svg">
<path d="M12 0.659668C5.5748 0.659668 0.300049 5.54088 0.300049 11.5871C0.300049 14.8083 1.8308 17.6703 4.20005 19.6638V24.0585L8.5271 21.95C9.6269 22.2731 10.7774 22.5144 12 22.5144C18.4253 22.5144 23.7001 17.6332 23.7001 11.5871C23.7001 5.54088 18.4253 0.659668 12 0.659668ZM12 2.56008C17.4201 2.56008 21.7501 6.61367 21.7501 11.5871C21.7501 16.5604 17.4201 20.614 12 20.614C10.8349 20.614 9.72245 20.3983 8.6792 20.0496L8.28335 19.9308L6.15005 20.9704V18.8324L5.78442 18.535C3.6209 16.8731 2.25005 14.3826 2.25005 11.5871C2.25005 6.61367 6.58002 2.56008 12 2.56008ZM10.9032 8.5882L5.02295 14.6458L10.2938 11.7951L13.0969 14.7351L18.9167 8.58725L13.7668 11.4094L10.9032 8.5882Z" fill="white"/>
</svg>
